inDegrees=no
num_controls=7
num_derivatives=13
num_iterations=55
num_multipliers=7
num_parameters=0
num_slacks=7
num_states=26
objective=0.481059
objective_accelerations=0.010369
objective_balance=0.000336
objective_effort=0.007691
objective_height=0.452218
objective_ligament=0.010444
solver_duration=792.022763
status=Solve_Succeeded
success=true
DataType=double
version=3
OpenSimVersion=4.5
endheader
time	/jointset/ground_pelvis/pelvis_tilt/value	/jointset/ground_pelvis/pelvis_tx/value	/jointset/ground_pelvis/pelvis_ty/value	/jointset/hip_l/hip_flexion_l/value	/jointset/hip_l/hip_adduction_l/value	/jointset/hip_l/hip_rotation_l/value	/jointset/back/lumbar_extension/value	/jointset/patellofemoral_l/patellar_flexion_l/value	/jointset/knee_l/knee_flexion_l/value	/jointset/knee_l/knee_adduction_l/value	/jointset/knee_l/knee_rotation_l/value	/jointset/ankle_l/ankle_angle_l/value	/jointset/subtalar_l/subtalar_angle_l/value	/jointset/ground_pelvis/pelvis_tilt/speed	/jointset/ground_pelvis/pelvis_tx/speed	/jointset/ground_pelvis/pelvis_ty/speed	/jointset/hip_l/hip_flexion_l/speed	/jointset/hip_l/hip_adduction_l/speed	/jointset/hip_l/hip_rotation_l/speed	/jointset/back/lumbar_extension/speed	/jointset/patellofemoral_l/patellar_flexion_l/speed	/jointset/knee_l/knee_flexion_l/speed	/jointset/knee_l/knee_adduction_l/speed	/jointset/knee_l/knee_rotation_l/speed	/jointset/ankle_l/ankle_angle_l/speed	/jointset/subtalar_l/subtalar_angle_l/speed	/forceset/tau_hip_flexion_l	/forceset/tau_hip_adduction_l	/forceset/tau_hip_rotation_l	/forceset/tau_knee_flexion_l	/forceset/tau_ankle_angle_l	/forceset/tau_subtalar_angle_l	/forceset/tau_lumbar_extension	lambda_cid13_p0	lambda_cid13_p1	lambda_cid13_p2	lambda_cid13_p3	lambda_cid13_p4	lambda_cid13_p5	lambda_cid14_p0	/jointset/ground_pelvis/pelvis_tilt/accel	/jointset/ground_pelvis/pelvis_tx/accel	/jointset/ground_pelvis/pelvis_ty/accel	/jointset/hip_l/hip_flexion_l/accel	/jointset/hip_l/hip_adduction_l/accel	/jointset/hip_l/hip_rotation_l/accel	/jointset/back/lumbar_extension/accel	/jointset/patellofemoral_l/patellar_flexion_l/accel	/jointset/knee_l/knee_flexion_l/accel	/jointset/knee_l/knee_adduction_l/accel	/jointset/knee_l/knee_rotation_l/accel	/jointset/ankle_l/ankle_angle_l/accel	/jointset/subtalar_l/subtalar_angle_l/accel	gamma_cid13_p0	gamma_cid13_p1	gamma_cid13_p2	gamma_cid13_p3	gamma_cid13_p4	gamma_cid13_p5	gamma_cid14_p0
1.5	0.02406452572648237	0.1816097954610794	0.8897198384774148	0.1667574730451906	-0.3218136254833359	-0.2389116404080688	-0.2366187856606441	0.37689329886075	0.3768932988606903	-0.01425482810209634	-0.1672109803040275	0.2856795411870698	0.2110966005850825	-0.4145637620244138	-0.04330311044879306	0.07548070819383079	-0.004156485766339927	0.1415006771253656	-0.2506128648648411	0.5723686040018945	-0.9502248502229192	-0.9502248502229346	0.008011337599060024	0.02247140270492701	-0.5608585450395555	-0.07599019559558785	0.02274939510896149	0.05566490318599501	-0.001954668159569477	-0.1106525680826156	-0.07690471937611673	-0.02363796188387627	0.02647811165841981	-53.0021038119618	15.89797605385516	1.351625182203734	8.310219279429205	-456.1174096601787	-41.51989017905451	-24.26965776160807	-0.03832256203778507	-0.1954317105478383	-0.1183144547966662	-0.08729206328670519	0.1649893737529701	0.1324620921589647	0.05855821523019816	-0.7096676075260095	-0.7096676075261075	-0.09471707118168261	0.262056049680311	-0.5542205898889345	0.01996634475993403	-5.999102933034865e-09	-6.667206311975523e-08	5.530324904795132e-08	-2.98688118984175e-09	-3.840085000080553e-08	-1.062048991811886e-07	-5.788675390406375e-09
1.51	0.019917168882484	0.1811671328475105	0.8904685229630683	0.1667117166116839	-0.3203907709413768	-0.2414104147351399	-0.2308925136545981	0.3673567193294715	0.3673567193291968	-0.01418000860303172	-0.1669729935840736	0.2800439583202432	0.2103374911137954	-0.4148631935240746	-0.04521498432585121	0.07424028805945906	-0.005021624274998369	0.1430270960764774	-0.2490673172497979	0.5728230277530728	-0.9570021930710383	-0.9570021930710298	0.006882823742835744	0.02514923717090966	-0.566198216369541	-0.07586127593670591	0.02286517215084396	0.05445359329114818	-0.001966955381898815	-0.1091397702251841	-0.07430788806051113	-0.02422112964951941	0.0258139012351138	-52.15794709767135	15.94540528825143	1.410353139894784	7.857228937513558	-455.5565694368523	-41.64530628811708	-24.39619580707232	-0.01909116572985001	-0.1869015257699962	-0.129298514666154	-0.09014843324035231	0.1399909291534642	0.1767949243803169	0.02946903732251423	-0.6484368831694164	-0.6484368831659556	-0.1323807667345888	0.274150150310037	-0.5148719374402746	0.004919798566284342	-7.409608604790842e-09	-6.028149811131629e-08	6.003372956178306e-08	-2.635223534283303e-09	-3.810405112468052e-08	-1.077617054189865e-07	-6.230621435047714e-09
1.52	0.01576815017915192	0.1807057842352726	0.8912043247029963	0.1666565040551971	-0.3189539476552663	-0.2438914948204188	-0.225163580494627	0.3577550325174794	0.3577550325173803	-0.01411856668700142	-0.1667075279187228	0.2743567724335264	0.2095787838435157	-0.41489613389575	-0.04704031018257616	0.07290415904858741	-0.006047710327126791	0.1442944259620483	-0.2470740165066499	0.5729008347947063	-0.9632463063077439	-0.9632463063077112	0.005335820930936478	0.02796719184700657	-0.571179149015002	-0.07590975539326321	0.02298094919053382	0.05324228339668909	-0.001979242601869061	-0.1076269723685772	-0.07171105674504635	-0.02480429741474464	0.025149690810045	-51.31771214214766	15.994790766557	1.467319518734967	7.415776310038054	-455.0482455757327	-41.77802539357613	-24.51543890593237	0.01497566355917246	-0.1781221064810372	-0.137456230096676	-0.1194815719807518	0.1131715606447343	0.2220127177798386	-0.01676512667881006	-0.6030216852433261	-0.6030216852433307	-0.1784148623167197	0.290080091702956	-0.4824728529838175	-0.01551347832788464	-7.2877655347224e-09	-6.327750983998583e-08	6.489694242357734e-08	-3.236119311730595e-09	-3.818550997991225e-08	-1.132313090350092e-07	-6.857463549311534e-09
1.53	0.01161996050787768	0.1802265972000112	0.8919262883470298	0.1665904759443466	-0.3175057366137511	-0.2463508755972885	-0.2194357068474834	0.3480936239609771	0.3480936239608765	-0.01407448241939638	-0.1664135887432611	0.2686215573258791	0.2088187308005199	-0.4147130937314016	-0.04878438568988839	0.07147294028547467	-0.007162278151244433	0.1453050231311677	-0.2447778097587553	0.5726137930314907	-0.9689419659291569	-0.968941965929162	0.00342931612302328	0.03079952221718612	-0.5758055957870717	-0.07612860502297138	0.0232042764090089	0.05197199876245028	-0.001995079565711002	-0.1062631466801974	-0.0688985184755395	-0.02539691967603432	0.02441081529164879	-50.4103687806976	16.04855098737482	1.509859792796162	6.938137546324022	-454.5358588505383	-41.9250356165084	-24.62751045232275	0.02427508168305384	-0.1706447380520015	-0.1483069058941077	-0.1080988837237851	0.08858464045372383	0.2370630614161106	-0.04368894100327453	-0.5388206118165636	-0.5388206118222767	-0.2045304845759112	0.2766515825611754	-0.4439928146612231	-0.02922904793869509	-5.537801926465527e-09	-7.624675935183304e-08	6.990118340508179e-08	-4.849103111746472e-09	-3.866886767471053e-08	-1.228582598653955e-07	-7.680757737549237e-09
